<svg width="113" height="76" viewBox="0 0 113 76" fill="none" xmlns="http://www.w3.org/2000/svg">
<g filter="url(#filter0_d_316_6381)">
<path d="M56.6811 3.61535C56.6811 4.47108 55.9874 5.16479 55.1317 5.16479C54.276 5.16479 53.5823 4.47108 53.5823 3.61535C53.5823 2.75962 54.276 2.06592 55.1317 2.06592C55.9874 2.06592 56.6811 2.75962 56.6811 3.61535Z" fill="#F5F5F5"/>
</g>
<g filter="url(#filter1_d_316_6381)">
<path d="M55.6482 60.9446C55.6482 61.5151 55.1857 61.9775 54.6152 61.9775C54.0447 61.9775 53.5823 61.5151 53.5823 60.9446C53.5823 60.3741 54.0447 59.9116 54.6152 59.9116C55.1857 59.9116 55.6482 60.3741 55.6482 60.9446Z" fill="#F5F5F5"/>
</g>
<g filter="url(#filter2_d_316_6381)">
<path d="M12.6349 2.53576C12.7016 2.20355 13.1515 2.1448 13.3012 2.44876C13.8246 3.51109 14.8116 4.27014 15.9727 4.5032C16.305 4.56988 16.3637 5.01976 16.0598 5.16951C14.9974 5.6929 14.2384 6.67994 14.0053 7.84104C13.9386 8.17326 13.4887 8.232 13.339 7.92805C12.8156 6.86572 11.8286 6.10667 10.6675 5.87361C10.3352 5.80693 10.2765 5.35705 10.5805 5.20729C11.6428 4.68391 12.4018 3.69687 12.6349 2.53576Z" fill="#F5F5F5"/>
</g>
<g filter="url(#filter3_d_316_6381)">
<path d="M104.568 42.8209C104.635 42.4887 105.085 42.43 105.235 42.7339C105.758 43.7962 106.745 44.5553 107.906 44.7884C108.238 44.855 108.297 45.3049 107.993 45.4547C106.931 45.9781 106.172 46.9651 105.939 48.1262C105.872 48.4584 105.422 48.5172 105.272 48.2132C104.749 47.1509 103.762 46.3918 102.601 46.1588C102.269 46.0921 102.21 45.6422 102.514 45.4924C103.576 44.9691 104.335 43.982 104.568 42.8209Z" fill="#F5F5F5"/>
</g>
<g filter="url(#filter4_d_316_6381)">
<path d="M12.4363 39.5371L13.9786 59.2338C14.2346 62.504 14.3627 64.139 15.5757 65.4415C16.7887 66.7439 18.1277 66.8845 20.8055 67.1656C23.281 67.4255 26.4011 67.5489 30.0114 67.2663C33.6216 66.9836 36.6845 66.3759 39.0893 65.7339C41.6908 65.0394 42.9915 64.6922 43.987 63.2168C44.9826 61.7414 44.8545 60.1063 44.5985 56.8362L43.0561 37.1395C42.9238 35.4494 42.8576 34.6044 43.1227 33.8363C43.3878 33.0682 43.9518 32.4708 45.0797 31.2758L45.5032 30.8272C47.9173 28.2697 49.1243 26.991 49.0007 25.2865C48.8771 23.582 47.641 22.6024 45.1687 20.6431C44.7945 20.3466 44.4252 20.0707 44.0704 19.8281C42.8376 18.985 41.1185 18.0913 39.8062 17.4511C38.5782 16.852 37.1867 16.8008 35.9101 17.2473L34.7294 17.6603C33.7944 17.9873 33.0114 18.6718 32.5332 19.58C29.9425 24.501 23.4229 25.0116 20.0978 20.5538C19.4841 19.731 18.6041 19.1768 17.6295 18.9993L16.3989 18.7751C15.0684 18.5327 13.7018 18.7999 12.5821 19.5828C11.3854 20.4194 9.82634 21.5699 8.7398 22.5946C8.42714 22.8894 8.10526 23.2194 7.78174 23.5707C5.64462 25.8908 4.57605 27.0509 4.71924 28.7538C4.86242 30.4568 6.2538 31.5321 9.03657 33.6827L9.52471 34.0599C10.8249 35.0647 11.475 35.5671 11.8564 36.2846C12.2378 37.002 12.3039 37.8471 12.4363 39.5371Z" fill="#F5F5F5"/>
</g>
<g filter="url(#filter5_d_316_6381)">
<path d="M67.1931 21.6111L59.5095 39.8128C58.2338 42.8348 57.596 44.3457 58.0746 46.06C58.5533 47.7743 59.6778 48.5145 61.9268 49.995C64.0059 51.3636 66.7201 52.9074 70.0563 54.3157C73.3926 55.7241 76.392 56.5922 78.8228 57.1274C81.4524 57.7064 82.7672 57.9958 84.3295 57.1431C85.8918 56.2904 86.5296 54.7794 87.8053 51.7575L95.4889 33.5558C96.1481 31.994 96.4778 31.2131 97.0662 30.6528C97.6547 30.0925 98.4301 29.8211 99.9811 29.2783L100.563 29.0746C103.883 27.9128 105.543 27.332 106.216 25.7614C106.89 24.1908 106.242 22.7526 104.947 19.8763C104.751 19.4409 104.55 19.0261 104.347 18.6476C103.639 17.3322 102.523 15.7483 101.652 14.5766C100.837 13.4801 99.6245 12.795 98.2856 12.6048L97.0472 12.4289C96.0664 12.2896 95.0564 12.5376 94.2143 13.1244C89.6516 16.304 83.6268 13.7607 82.7227 8.2734C82.5559 7.26065 82.0291 6.36393 81.2452 5.75834L80.2553 4.99362C79.1851 4.16684 77.8486 3.77599 76.4943 3.95658C75.0469 4.14957 73.1335 4.45471 71.6976 4.8653C71.2844 4.98345 70.8469 5.1286 70.3981 5.29182C67.4337 6.37005 65.9515 6.90917 65.2959 8.48742C64.6403 10.0657 65.3818 11.6602 66.8647 14.8491L67.1248 15.4085C67.8177 16.8985 68.1641 17.6435 68.173 18.456C68.182 19.2685 67.8523 20.0494 67.1931 21.6111Z" fill="#F5F5F5"/>
</g>
<defs>
<filter id="filter0_d_316_6381" x="49.5823" y="2.06592" width="11.0989" height="11.0989" filterUnits="userSpaceOnUse" color-interpolation-filters="sRGB">
<feFlood flood-opacity="0" result="BackgroundImageFix"/>
<feColorMatrix in="SourceAlpha" type="matrix" values="0 0 0 0 0 0 0 0 0 0 0 0 0 0 0 0 0 0 127 0" result="hardAlpha"/>
<feOffset dy="4"/>
<feGaussianBlur stdDeviation="2"/>
<feComposite in2="hardAlpha" operator="out"/>
<feColorMatrix type="matrix" values="0 0 0 0 0 0 0 0 0 0 0 0 0 0 0 0 0 0 0.1 0"/>
<feBlend mode="normal" in2="BackgroundImageFix" result="effect1_dropShadow_316_6381"/>
<feBlend mode="normal" in="SourceGraphic" in2="effect1_dropShadow_316_6381" result="shape"/>
</filter>
<filter id="filter1_d_316_6381" x="49.5823" y="59.9116" width="10.0659" height="10.0659" filterUnits="userSpaceOnUse" color-interpolation-filters="sRGB">
<feFlood flood-opacity="0" result="BackgroundImageFix"/>
<feColorMatrix in="SourceAlpha" type="matrix" values="0 0 0 0 0 0 0 0 0 0 0 0 0 0 0 0 0 0 127 0" result="hardAlpha"/>
<feOffset dy="4"/>
<feGaussianBlur stdDeviation="2"/>
<feComposite in2="hardAlpha" operator="out"/>
<feColorMatrix type="matrix" values="0 0 0 0 0 0 0 0 0 0 0 0 0 0 0 0 0 0 0.1 0"/>
<feBlend mode="normal" in2="BackgroundImageFix" result="effect1_dropShadow_316_6381"/>
<feBlend mode="normal" in="SourceGraphic" in2="effect1_dropShadow_316_6381" result="shape"/>
</filter>
<filter id="filter2_d_316_6381" x="6.38232" y="2.25049" width="13.8755" height="13.8757" filterUnits="userSpaceOnUse" color-interpolation-filters="sRGB">
<feFlood flood-opacity="0" result="BackgroundImageFix"/>
<feColorMatrix in="SourceAlpha" type="matrix" values="0 0 0 0 0 0 0 0 0 0 0 0 0 0 0 0 0 0 127 0" result="hardAlpha"/>
<feOffset dy="4"/>
<feGaussianBlur stdDeviation="2"/>
<feComposite in2="hardAlpha" operator="out"/>
<feColorMatrix type="matrix" values="0 0 0 0 0 0 0 0 0 0 0 0 0 0 0 0 0 0 0.1 0"/>
<feBlend mode="normal" in2="BackgroundImageFix" result="effect1_dropShadow_316_6381"/>
<feBlend mode="normal" in="SourceGraphic" in2="effect1_dropShadow_316_6381" result="shape"/>
</filter>
<filter id="filter3_d_316_6381" x="98.3157" y="42.5356" width="13.8755" height="13.8757" filterUnits="userSpaceOnUse" color-interpolation-filters="sRGB">
<feFlood flood-opacity="0" result="BackgroundImageFix"/>
<feColorMatrix in="SourceAlpha" type="matrix" values="0 0 0 0 0 0 0 0 0 0 0 0 0 0 0 0 0 0 127 0" result="hardAlpha"/>
<feOffset dy="4"/>
<feGaussianBlur stdDeviation="2"/>
<feComposite in2="hardAlpha" operator="out"/>
<feColorMatrix type="matrix" values="0 0 0 0 0 0 0 0 0 0 0 0 0 0 0 0 0 0 0.1 0"/>
<feBlend mode="normal" in2="BackgroundImageFix" result="effect1_dropShadow_316_6381"/>
<feBlend mode="normal" in="SourceGraphic" in2="effect1_dropShadow_316_6381" result="shape"/>
</filter>
<filter id="filter4_d_316_6381" x="0.706543" y="16.9512" width="52.3027" height="58.4766" filterUnits="userSpaceOnUse" color-interpolation-filters="sRGB">
<feFlood flood-opacity="0" result="BackgroundImageFix"/>
<feColorMatrix in="SourceAlpha" type="matrix" values="0 0 0 0 0 0 0 0 0 0 0 0 0 0 0 0 0 0 127 0" result="hardAlpha"/>
<feOffset dy="4"/>
<feGaussianBlur stdDeviation="2"/>
<feComposite in2="hardAlpha" operator="out"/>
<feColorMatrix type="matrix" values="0 0 0 0 0 0 0 0 0 0 0 0 0 0 0 0 0 0 0.1 0"/>
<feBlend mode="normal" in2="BackgroundImageFix" result="effect1_dropShadow_316_6381"/>
<feBlend mode="normal" in="SourceGraphic" in2="effect1_dropShadow_316_6381" result="shape"/>
</filter>
<filter id="filter5_d_316_6381" x="53.9158" y="3.91333" width="56.5706" height="61.7649" filterUnits="userSpaceOnUse" color-interpolation-filters="sRGB">
<feFlood flood-opacity="0" result="BackgroundImageFix"/>
<feColorMatrix in="SourceAlpha" type="matrix" values="0 0 0 0 0 0 0 0 0 0 0 0 0 0 0 0 0 0 127 0" result="hardAlpha"/>
<feOffset dy="4"/>
<feGaussianBlur stdDeviation="2"/>
<feComposite in2="hardAlpha" operator="out"/>
<feColorMatrix type="matrix" values="0 0 0 0 0 0 0 0 0 0 0 0 0 0 0 0 0 0 0.1 0"/>
<feBlend mode="normal" in2="BackgroundImageFix" result="effect1_dropShadow_316_6381"/>
<feBlend mode="normal" in="SourceGraphic" in2="effect1_dropShadow_316_6381" result="shape"/>
</filter>
</defs>
</svg>
