<svg width="104" height="84" viewBox="0 0 104 84" fill="none" xmlns="http://www.w3.org/2000/svg">
<g filter="url(#filter0_d_316_6388)">
<path d="M87.3141 66.9062C87.413 66.4136 88.08 66.3265 88.302 66.7772C89.078 68.3522 90.5414 69.4776 92.2629 69.8231C92.7555 69.922 92.8426 70.589 92.3919 70.8111C90.8169 71.587 89.6915 73.0505 89.3459 74.772C89.2471 75.2645 88.58 75.3516 88.358 74.901C87.582 73.3259 86.1186 72.2005 84.3971 71.855C83.9045 71.7561 83.8175 71.0891 84.2681 70.8671C85.8432 70.0911 86.9686 68.6277 87.3141 66.9062Z" fill="#F5F5F5"/>
<path d="M6.94979 3.85529C6.94393 3.28052 7.66999 3.02521 8.02516 3.47715C9.26649 5.05671 11.171 5.97025 13.1798 5.94976C13.7546 5.94389 14.0099 6.66996 13.5579 7.02513C11.9784 8.26646 11.0648 10.1709 11.0853 12.1798C11.0912 12.7546 10.3651 13.0099 10.01 12.5579C8.76865 10.9784 6.86418 10.0648 4.85533 10.0853C4.28055 10.0912 4.02524 9.36511 4.47718 9.00994C6.05674 7.76861 6.97029 5.86414 6.94979 3.85529Z" fill="#F5F5F5"/>
<path d="M99.0164 28.3329C99.0164 29.6016 97.9879 30.6301 96.7191 30.6301C95.4504 30.6301 94.4219 29.6016 94.4219 28.3329C94.4219 27.0642 95.4504 26.0356 96.7191 26.0356C97.9879 26.0356 99.0164 27.0642 99.0164 28.3329Z" fill="#F5F5F5"/>
<circle cx="10.9547" cy="69.6832" r="2.29725" fill="#F5F5F5"/>
<path d="M60.7282 12.252H57.6652C53.3335 12.252 51.1676 12.252 49.8219 13.5977C48.4762 14.9433 48.4762 17.1092 48.4762 21.441C48.4762 25.7727 48.4762 27.9386 49.8219 29.2843C51.1676 30.63 53.3335 30.63 57.6652 30.63H60.7282C65.0599 30.63 67.2258 30.63 68.5715 29.2843C69.4434 28.4124 69.7504 27.1962 69.8585 25.2697H69.9172L74.8651 27.3313C76.7832 28.1305 77.7423 28.5301 78.4242 28.0755C79.1062 27.6208 79.1062 26.5819 79.1062 24.504V18.378C79.1062 16.3 79.1062 15.2611 78.4242 14.8064C77.7423 14.3518 76.7832 14.7514 74.8651 15.5506L69.9172 17.6122H69.8585C69.7504 15.6857 69.4434 14.4695 68.5715 13.5977C67.2258 12.252 65.0599 12.252 60.7282 12.252Z" fill="#F5F5F5"/>
<path d="M36.2242 58.197C27.5607 58.197 23.229 58.197 20.5376 55.5056C18.7938 53.7618 18.1798 51.3294 17.9637 47.4765H78.9887C78.7726 51.3294 78.1586 53.7618 76.4148 55.5056C73.7234 58.197 69.3917 58.197 60.7282 58.197H50.7734V70.449H60.7282C61.9969 70.449 63.0255 71.4775 63.0255 72.7462C63.0255 74.015 61.9969 75.0435 60.7282 75.0435H36.2242C34.9555 75.0435 33.9269 74.015 33.9269 72.7462C33.9269 71.4775 34.9555 70.449 36.2242 70.449H46.1789V58.197H36.2242Z" fill="#F5F5F5"/>
<path d="M79.1062 36.756V39.819C79.1062 41.5086 79.1062 43.0334 79.0862 44.4135H17.8662C17.8462 43.0334 17.8462 41.5086 17.8462 39.819V36.756C17.8462 25.2047 17.8462 19.429 21.4347 15.8405C25.0232 12.252 30.7989 12.252 42.3502 12.252H45.1625C44.5338 13.4292 44.2425 14.6592 44.0909 15.7873C43.8809 17.3491 43.8813 19.2426 43.8817 21.191L43.8817 21.441L43.8817 21.6909C43.8813 23.6393 43.8809 25.5328 44.0909 27.0946C44.3276 28.8552 44.9043 30.8643 46.5731 32.5331C48.2419 34.2019 50.251 34.7786 52.0116 35.0153C53.5733 35.2252 55.4668 35.2249 57.4152 35.2245L57.6652 35.2245H60.7282L60.9782 35.2245C62.9266 35.2249 64.8201 35.2252 66.3818 35.0153C68.1425 34.7786 70.1515 34.2019 71.8203 32.5331C72.1752 32.1782 72.4812 31.8071 72.7454 31.4255L73.098 31.5724L73.2718 31.645C74.0676 31.9774 75.0756 32.3985 75.9807 32.6276C76.6963 32.8088 77.8371 33.002 79.0993 32.7109C79.1062 33.9747 79.1062 35.3207 79.1062 36.756Z" fill="#F5F5F5"/>
</g>
<defs>
<filter id="filter0_d_316_6388" x="0.24585" y="3.24585" width="102.771" height="79.949" filterUnits="userSpaceOnUse" color-interpolation-filters="sRGB">
<feFlood flood-opacity="0" result="BackgroundImageFix"/>
<feColorMatrix in="SourceAlpha" type="matrix" values="0 0 0 0 0 0 0 0 0 0 0 0 0 0 0 0 0 0 127 0" result="hardAlpha"/>
<feOffset dy="4"/>
<feGaussianBlur stdDeviation="2"/>
<feComposite in2="hardAlpha" operator="out"/>
<feColorMatrix type="matrix" values="0 0 0 0 0 0 0 0 0 0 0 0 0 0 0 0 0 0 0.1 0"/>
<feBlend mode="normal" in2="BackgroundImageFix" result="effect1_dropShadow_316_6388"/>
<feBlend mode="normal" in="SourceGraphic" in2="effect1_dropShadow_316_6388" result="shape"/>
</filter>
</defs>
</svg>
