<svg width="501" height="391" viewBox="0 0 501 391" fill="none" xmlns="http://www.w3.org/2000/svg">
<path d="M219.491 200.668C219.491 199.59 219.731 198.627 220.213 197.78C220.705 196.922 221.369 196.257 222.206 195.786C223.054 195.305 224.001 195.064 225.047 195.064C226.271 195.064 227.344 195.378 228.265 196.006C229.186 196.634 229.829 197.503 230.196 198.612H227.668C227.417 198.089 227.062 197.696 226.601 197.435C226.151 197.173 225.628 197.042 225.032 197.042C224.393 197.042 223.823 197.194 223.321 197.497C222.829 197.79 222.442 198.209 222.159 198.753C221.887 199.297 221.751 199.935 221.751 200.668C221.751 201.39 221.887 202.028 222.159 202.583C222.442 203.127 222.829 203.551 223.321 203.854C223.823 204.147 224.393 204.294 225.032 204.294C225.628 204.294 226.151 204.163 226.601 203.901C227.062 203.629 227.417 203.232 227.668 202.708H230.196C229.829 203.828 229.186 204.702 228.265 205.33C227.355 205.947 226.282 206.256 225.047 206.256C224.001 206.256 223.054 206.02 222.206 205.549C221.369 205.068 220.705 204.404 220.213 203.556C219.731 202.708 219.491 201.746 219.491 200.668ZM235.934 206.303C235.097 206.303 234.343 206.12 233.673 205.754C233.004 205.377 232.475 204.848 232.088 204.168C231.711 203.488 231.523 202.703 231.523 201.814C231.523 200.924 231.717 200.14 232.104 199.459C232.501 198.779 233.04 198.256 233.721 197.89C234.401 197.513 235.159 197.325 235.996 197.325C236.834 197.325 237.592 197.513 238.272 197.89C238.953 198.256 239.486 198.779 239.873 199.459C240.271 200.14 240.47 200.924 240.47 201.814C240.47 202.703 240.266 203.488 239.858 204.168C239.46 204.848 238.916 205.377 238.225 205.754C237.545 206.12 236.781 206.303 235.934 206.303ZM235.934 204.388C236.331 204.388 236.703 204.294 237.048 204.105C237.404 203.907 237.686 203.614 237.896 203.226C238.105 202.839 238.21 202.368 238.21 201.814C238.21 200.987 237.99 200.354 237.55 199.915C237.121 199.465 236.593 199.24 235.965 199.24C235.337 199.24 234.809 199.465 234.38 199.915C233.961 200.354 233.752 200.987 233.752 201.814C233.752 202.64 233.956 203.279 234.364 203.729C234.783 204.168 235.306 204.388 235.934 204.388ZM244.279 194.546V206.162H242.082V194.546H244.279ZM248.648 194.546V206.162H246.45V194.546H248.648ZM258.902 201.625C258.902 201.939 258.881 202.222 258.84 202.473H252.483C252.535 203.101 252.755 203.593 253.142 203.948C253.529 204.304 254.005 204.482 254.57 204.482C255.386 204.482 255.967 204.132 256.313 203.43H258.683C258.431 204.268 257.95 204.958 257.239 205.502C256.527 206.036 255.653 206.303 254.617 206.303C253.78 206.303 253.027 206.12 252.357 205.754C251.698 205.377 251.18 204.848 250.803 204.168C250.437 203.488 250.254 202.703 250.254 201.814C250.254 200.914 250.437 200.124 250.803 199.444C251.169 198.764 251.682 198.24 252.341 197.874C253.001 197.508 253.759 197.325 254.617 197.325C255.444 197.325 256.182 197.503 256.83 197.858C257.49 198.214 257.997 198.722 258.353 199.381C258.719 200.03 258.902 200.778 258.902 201.625ZM256.626 200.998C256.616 200.433 256.412 199.983 256.014 199.648C255.617 199.302 255.13 199.13 254.555 199.13C254.01 199.13 253.55 199.297 253.173 199.632C252.807 199.956 252.582 200.412 252.498 200.998H256.626ZM259.941 201.814C259.941 200.914 260.124 200.129 260.491 199.459C260.857 198.779 261.364 198.256 262.013 197.89C262.662 197.513 263.405 197.325 264.242 197.325C265.32 197.325 266.209 197.597 266.91 198.141C267.622 198.675 268.098 199.428 268.339 200.401H265.969C265.843 200.024 265.628 199.731 265.325 199.522C265.032 199.302 264.666 199.193 264.226 199.193C263.598 199.193 263.101 199.423 262.735 199.883C262.369 200.333 262.186 200.977 262.186 201.814C262.186 202.64 262.369 203.284 262.735 203.744C263.101 204.194 263.598 204.419 264.226 204.419C265.116 204.419 265.697 204.022 265.969 203.226H268.339C268.098 204.168 267.622 204.916 266.91 205.471C266.199 206.026 265.309 206.303 264.242 206.303C263.405 206.303 262.662 206.12 262.013 205.754C261.364 205.377 260.857 204.854 260.491 204.184C260.124 203.504 259.941 202.714 259.941 201.814ZM272.507 199.271V203.478C272.507 203.771 272.575 203.985 272.711 204.121C272.858 204.247 273.098 204.309 273.433 204.309H274.453V206.162H273.072C271.22 206.162 270.294 205.262 270.294 203.462V199.271H269.258V197.466H270.294V195.316H272.507V197.466H274.453V199.271H272.507ZM277.148 196.43C276.761 196.43 276.437 196.31 276.175 196.069C275.924 195.818 275.798 195.509 275.798 195.143C275.798 194.777 275.924 194.473 276.175 194.233C276.437 193.981 276.761 193.856 277.148 193.856C277.535 193.856 277.855 193.981 278.106 194.233C278.367 194.473 278.498 194.777 278.498 195.143C278.498 195.509 278.367 195.818 278.106 196.069C277.855 196.31 277.535 196.43 277.148 196.43ZM278.231 197.466V206.162H276.034V197.466H278.231ZM282.6 198.737C282.882 198.319 283.27 197.979 283.761 197.717C284.264 197.456 284.834 197.325 285.472 197.325C286.215 197.325 286.885 197.508 287.481 197.874C288.088 198.24 288.564 198.764 288.91 199.444C289.265 200.113 289.443 200.893 289.443 201.782C289.443 202.672 289.265 203.462 288.91 204.153C288.564 204.833 288.088 205.361 287.481 205.738C286.885 206.115 286.215 206.303 285.472 206.303C284.823 206.303 284.253 206.177 283.761 205.926C283.28 205.665 282.893 205.33 282.6 204.922V206.162H280.402V194.546H282.6V198.737ZM287.199 201.782C287.199 201.259 287.089 200.809 286.869 200.433C286.66 200.045 286.377 199.752 286.022 199.554C285.676 199.355 285.3 199.255 284.891 199.255C284.494 199.255 284.117 199.36 283.761 199.569C283.416 199.768 283.134 200.061 282.914 200.448C282.704 200.835 282.6 201.291 282.6 201.814C282.6 202.337 282.704 202.792 282.914 203.179C283.134 203.567 283.416 203.865 283.761 204.074C284.117 204.273 284.494 204.372 284.891 204.372C285.3 204.372 285.676 204.268 286.022 204.058C286.377 203.849 286.66 203.551 286.869 203.164C287.089 202.776 287.199 202.316 287.199 201.782ZM293.238 194.546V206.162H291.04V194.546H293.238ZM303.492 201.625C303.492 201.939 303.471 202.222 303.429 202.473H297.073C297.125 203.101 297.345 203.593 297.732 203.948C298.119 204.304 298.595 204.482 299.16 204.482C299.976 204.482 300.557 204.132 300.902 203.43H303.272C303.021 204.268 302.54 204.958 301.828 205.502C301.117 206.036 300.243 206.303 299.207 206.303C298.37 206.303 297.617 206.12 296.947 205.754C296.288 205.377 295.77 204.848 295.393 204.168C295.027 203.488 294.844 202.703 294.844 201.814C294.844 200.914 295.027 200.124 295.393 199.444C295.759 198.764 296.272 198.24 296.931 197.874C297.59 197.508 298.349 197.325 299.207 197.325C300.034 197.325 300.772 197.503 301.42 197.858C302.08 198.214 302.587 198.722 302.943 199.381C303.309 200.03 303.492 200.778 303.492 201.625ZM301.216 200.998C301.206 200.433 301.002 199.983 300.604 199.648C300.207 199.302 299.72 199.13 299.144 199.13C298.6 199.13 298.14 199.297 297.763 199.632C297.397 199.956 297.172 200.412 297.088 200.998H301.216Z" fill="#9276E6"/>
<path d="M207.256 190.598C207.077 190.532 206.894 190.473 206.709 190.418L207.009 208.504C207.094 208.476 207.178 208.447 207.262 208.416C209.092 207.753 210.675 206.542 211.793 204.948C212.911 203.354 213.511 201.454 213.511 199.507C213.511 197.56 212.911 195.66 211.793 194.066C210.675 192.472 209.092 191.261 207.262 190.598H207.256Z" fill="url(#paint0_linear_136_733)"/>
<path d="M204.068 206.529V209.64C203.654 209.671 203.566 209.676 203.222 209.676C202.103 209.677 200.992 209.488 199.937 209.117C199.562 208.988 199.197 208.836 198.841 208.661C197.163 207.842 195.749 206.568 194.76 204.984C193.771 203.4 193.246 201.57 193.246 199.702C193.246 197.834 193.771 196.004 194.76 194.42C195.749 192.836 197.163 191.562 198.841 190.743C199.196 190.567 199.561 190.415 199.934 190.285C200.99 189.914 202.101 189.725 203.22 189.726C203.453 189.718 203.685 189.726 203.917 189.75L203.9 192.883C203.676 192.86 203.453 192.849 203.22 192.849C201.404 192.849 199.662 193.57 198.378 194.855C197.094 196.139 196.373 197.88 196.373 199.696C196.373 201.512 197.094 203.254 198.378 204.538C199.662 205.822 201.404 206.544 203.22 206.544C203.464 206.549 203.697 206.556 204.068 206.529Z" fill="url(#paint1_linear_136_733)"/>
<path d="M207.255 182.28V217.233C207.255 217.331 207.228 217.428 207.178 217.512C207.127 217.597 207.055 217.666 206.968 217.713C206.881 217.76 206.783 217.782 206.685 217.778C206.586 217.774 206.491 217.743 206.409 217.689L199.09 212.879C199.014 212.829 198.952 212.761 198.909 212.681C198.866 212.601 198.844 212.512 198.844 212.421V208.661C199.198 208.837 199.563 208.989 199.937 209.119V212.131L206.162 216.219V183.299L199.937 187.438V190.285C199.563 190.414 199.197 190.567 198.842 190.742V187.415C198.842 187.24 198.885 187.068 198.967 186.914C199.05 186.76 199.17 186.628 199.316 186.532L206.406 181.824C206.489 181.769 206.584 181.738 206.683 181.733C206.782 181.728 206.88 181.75 206.967 181.797C207.055 181.844 207.127 181.914 207.178 181.999C207.229 182.084 207.256 182.181 207.255 182.28Z" fill="#9276E5"/>
<path d="M74.4932 197.136C74.6226 196.572 75.3942 196.492 75.636 197.019V197.019C76.481 198.859 78.1325 200.202 80.1061 200.654V200.654C80.6707 200.784 80.7502 201.555 80.2237 201.797V201.797C78.3837 202.642 77.0405 204.294 76.5881 206.267V206.267C76.4586 206.832 75.687 206.911 75.4453 206.385V206.385C74.6003 204.545 72.9487 203.202 70.9752 202.749V202.749C70.4106 202.62 70.3311 201.848 70.8576 201.606V201.606C72.6975 200.761 74.0408 199.11 74.4932 197.136V197.136Z" fill="#7A5FC8"/>
<path d="M420.012 229.426C420.071 228.828 420.854 228.644 421.173 229.154L421.713 230.02C422.826 231.803 424.704 232.968 426.795 233.173L427.811 233.273C428.409 233.332 428.593 234.116 428.083 234.434L427.217 234.975C425.434 236.087 424.269 237.965 424.064 240.056L423.964 241.072C423.905 241.671 423.121 241.854 422.803 241.344L422.262 240.478C421.15 238.695 419.272 237.53 417.18 237.325L416.165 237.225C415.566 237.166 415.383 236.382 415.893 236.064L416.759 235.524C418.542 234.411 419.707 232.533 419.912 230.442L420.012 229.426Z" fill="#7A5FC8"/>
<path d="M337.357 200.006C337.357 218.295 327.454 234.858 311.432 246.851C295.411 258.845 273.274 266.265 248.818 266.265C224.363 266.265 202.226 258.845 186.204 246.851C170.183 234.858 160.28 218.295 160.28 200.006C160.28 181.717 170.183 165.154 186.204 153.16C202.226 141.166 224.363 133.746 248.818 133.746C273.274 133.746 295.411 141.166 311.432 153.16C327.454 165.154 337.357 181.717 337.357 200.006Z" stroke="#F5F5F5" stroke-opacity="0.5" stroke-width="0.150192"/>
<path d="M378.91 202.258C378.91 229.465 364.356 254.101 340.815 271.938C317.274 289.775 284.748 300.809 248.819 300.809C212.889 300.809 180.364 289.775 156.823 271.938C133.281 254.101 118.727 229.465 118.727 202.258C118.727 175.052 133.281 150.416 156.823 132.579C180.364 114.742 212.889 103.707 248.819 103.707C284.748 103.707 317.274 114.742 340.815 132.579C364.356 150.416 378.91 175.052 378.91 202.258Z" stroke="#F5F5F5" stroke-opacity="0.5" stroke-width="0.150192"/>
<path d="M459.013 194.249C459.013 237.768 435.521 277.173 397.53 305.7C359.538 334.228 307.05 351.875 249.069 351.875C191.089 351.875 138.601 334.228 100.609 305.7C62.6172 277.173 39.1259 237.768 39.1259 194.249C39.1259 150.729 62.6172 111.324 100.609 82.7967C138.601 54.269 191.089 36.622 249.069 36.622C307.05 36.622 359.538 54.269 397.53 82.7967C435.521 111.324 459.013 150.729 459.013 194.249Z" stroke="#F5F5F5" stroke-opacity="0.5" stroke-width="0.150192"/>
<path d="M497.561 195.5C497.561 303.414 386.213 390.925 248.818 390.925C111.423 390.925 0.075096 303.414 0.075096 195.5C0.075096 87.5857 111.423 0.075096 248.818 0.075096C386.213 0.075096 497.561 87.5857 497.561 195.5Z" stroke="#F5F5F5" stroke-opacity="0.5" stroke-width="0.150192"/>
<circle cx="327.168" cy="232.547" r="3.25416" fill="#FC7E3A"/>
<circle cx="145.938" cy="141.931" r="3.25416" fill="#26F0FB"/>
<circle cx="127.412" cy="322.662" r="3.25416" fill="#FC16B1"/>
<circle cx="73.344" cy="57.824" r="3.25416" fill="#FEFC3F"/>
<circle cx="497.387" cy="200.006" r="3.25416" fill="#FEFC3F"/>
<defs>
<linearGradient id="paint0_linear_136_733" x1="202.03" y1="201.095" x2="220.941" y2="194.694" gradientUnits="userSpaceOnUse">
<stop offset="0.08" stop-color="#7A5FC8"/>
<stop offset="0.79" stop-color="#FF00FF"/>
</linearGradient>
<linearGradient id="paint1_linear_136_733" x1="193.727" y1="202.763" x2="206.822" y2="198.33" gradientUnits="userSpaceOnUse">
<stop offset="0.08" stop-color="#7A5FC8"/>
<stop offset="0.79" stop-color="#FF00FF"/>
</linearGradient>
</defs>
</svg>
