<svg width="500" height="496" viewBox="0 0 500 496" fill="none" xmlns="http://www.w3.org/2000/svg">
<path d="M78.2157 260.124C78.7847 259.431 79.9086 259.854 79.8804 260.75V260.75C79.7815 263.882 81.143 266.883 83.5653 268.872V268.872C84.2584 269.441 83.836 270.565 82.9397 270.537V270.537C79.8072 270.438 76.8064 271.799 74.8178 274.222V274.222C74.2488 274.915 73.1248 274.492 73.1531 273.596V273.596C73.2519 270.463 71.8905 267.462 69.4682 265.474V265.474C68.7751 264.905 69.1975 263.781 70.0937 263.809V263.809C73.2262 263.908 76.227 262.547 78.2157 260.124V260.124Z" fill="#7A5FC8"/>
<path d="M278.611 440.66C278.682 439.941 279.625 439.72 280.008 440.333V440.333C281.346 442.477 283.604 443.878 286.119 444.125V444.125C286.839 444.196 287.06 445.139 286.446 445.522V445.522C284.302 446.86 282.901 449.118 282.654 451.633V451.633C282.583 452.353 281.641 452.574 281.258 451.96V451.96C279.919 449.816 277.662 448.415 275.146 448.168V448.168C274.427 448.098 274.206 447.155 274.819 446.772V446.772C276.963 445.434 278.364 443.176 278.611 440.66V440.66Z" fill="#7A5FC8"/>
<path d="M499.85 248C499.85 294.036 462.533 331.355 416.499 331.355C370.466 331.355 333.148 294.036 333.148 248C333.148 201.964 370.466 164.645 416.499 164.645C462.533 164.645 499.85 201.964 499.85 248Z" stroke="#F5F5F5" stroke-opacity="0.5" stroke-width="0.3"/>
<path d="M499.85 247.748C499.85 310.87 448.682 362.041 385.564 362.041C322.445 362.041 271.277 310.87 271.277 247.748C271.277 184.627 322.445 133.456 385.564 133.456C448.682 133.456 499.85 184.627 499.85 247.748Z" stroke="#F5F5F5" stroke-opacity="0.5" stroke-width="0.3"/>
<path d="M499.85 248C499.85 349.045 417.941 430.958 316.901 430.958C215.862 430.958 133.953 349.045 133.953 248C133.953 146.955 215.862 65.0426 316.901 65.0426C417.941 65.0426 499.85 146.955 499.85 248Z" stroke="#F5F5F5" stroke-opacity="0.5" stroke-width="0.3"/>
<path d="M499.85 248C499.85 384.883 387.989 495.85 250 495.85C112.011 495.85 0.15 384.883 0.15 248C0.15 111.117 112.011 0.15 250 0.15C387.989 0.15 499.85 111.117 499.85 248Z" stroke="#F5F5F5" stroke-opacity="0.5" stroke-width="0.3"/>
<circle cx="334.76" cy="264.852" r="3.26978" fill="#FC7E3A"/>
<circle cx="167.254" cy="142.11" r="3.26978" fill="#26F0FB"/>
<circle cx="128.522" cy="464.057" r="3.26978" fill="#26F0FB"/>
<circle cx="158.701" cy="340.308" r="3.26978" fill="#FC16B1"/>
<circle cx="23.3889" cy="142.11" r="3.26978" fill="#FEFC3F"/>
<circle cx="496.731" cy="214.548" r="3.26978" fill="#FEFC3F"/>
<path fill-rule="evenodd" clip-rule="evenodd" d="M91.6211 42.7583C86.5815 42.7583 82.4961 46.8437 82.4961 51.8833V70.3554C82.4961 75.395 86.5815 79.4804 91.6211 79.4804H110.091C115.131 79.4804 119.216 75.395 119.216 70.3554V51.8833C119.216 46.8437 115.131 42.7583 110.091 42.7583H91.6211ZM100.473 55.5724C100.473 53.7091 100.473 52.7774 101.052 52.1985C101.631 51.6197 102.563 51.6197 104.426 51.6197H106.402C108.265 51.6197 109.197 51.6197 109.776 52.1985C110.355 52.7774 110.355 53.7091 110.355 55.5724V57.5488C110.355 59.4121 110.355 60.3438 109.776 60.9226C109.197 61.5015 108.265 61.5015 106.402 61.5015H104.426C102.563 61.5015 101.631 61.5015 101.052 60.9226C100.473 60.3438 100.473 59.4121 100.473 57.5488V55.5724ZM98.9911 56.5611C97.4524 56.5656 96.6367 56.6142 96.1114 57.1395C95.5326 57.7183 95.5326 58.65 95.5326 60.5133V62.4897C95.5326 63.9099 95.5326 64.7889 95.7889 65.3829C95.8584 65.5439 95.9466 65.684 96.0588 65.8082C96.0758 65.827 96.0933 65.8454 96.1114 65.8635C96.6903 66.4424 97.6219 66.4424 99.4851 66.4424H101.461C103.325 66.4424 104.256 66.4424 104.835 65.8635C105.36 65.3383 105.409 64.5225 105.413 62.9838L104.337 62.9838H104.337H104.337H104.337H104.337C103.482 62.9839 102.698 62.984 102.06 62.8982C101.357 62.8037 100.615 62.5815 100.004 61.9708C99.3933 61.36 99.1711 60.6175 99.0766 59.9149C98.9909 59.2769 98.991 58.4926 98.9911 57.6372L98.9911 56.5611ZM91.1708 62.0804C91.696 61.5551 92.5117 61.5065 94.0504 61.5019L94.0504 62.5781V62.5781C94.0503 63.4335 94.0502 64.2178 94.136 64.8558C94.2304 65.5584 94.4526 66.3009 95.0634 66.9117C95.6741 67.5224 96.4166 67.7447 97.1191 67.8391C97.7571 67.9249 98.5414 67.9248 99.3967 67.9247L100.473 67.9247C100.468 69.4634 100.42 70.2792 99.8944 70.8044C99.3156 71.3833 98.384 71.3833 96.5207 71.3833H94.5445C92.6812 71.3833 91.7496 71.3833 91.1708 70.8044C90.5919 70.2256 90.5919 69.2939 90.5919 67.4306V65.4542C90.5919 63.5909 90.5919 62.6592 91.1708 62.0804Z" fill="#FF00FF"/>
<path fill-rule="evenodd" clip-rule="evenodd" d="M267.027 226.369C260.4 226.369 255.027 231.742 255.027 238.369V262.661C255.027 269.289 260.4 274.661 267.027 274.661H291.317C297.944 274.661 303.317 269.289 303.317 262.661V238.369C303.317 231.742 297.945 226.369 291.317 226.369H267.027ZM269.111 246.491C269.111 246.988 270.11 247.387 272.108 248.186L274.933 249.317C276.931 250.116 277.93 250.515 279.171 250.515C280.413 250.515 281.412 250.116 283.41 249.317L286.235 248.186C288.233 247.387 289.232 246.988 289.232 246.491C289.232 245.995 288.233 245.595 286.235 244.796L283.41 243.666C281.412 242.866 280.413 242.467 279.171 242.467C277.93 242.467 276.931 242.866 274.933 243.666L272.108 244.796C270.11 245.595 269.111 245.995 269.111 246.491ZM286.235 252.211L283.41 253.341L283.41 253.341C281.412 254.14 280.413 254.54 279.171 254.54C277.93 254.54 276.931 254.14 274.933 253.341L274.933 253.341L272.108 252.211C270.11 251.412 269.111 251.012 269.111 250.515C269.111 250.068 269.923 249.699 271.546 249.045L274.706 250.309C276.566 251.054 277.735 251.521 279.171 251.521C280.608 251.521 281.777 251.054 283.637 250.309L286.797 249.045C288.42 249.699 289.232 250.068 289.232 250.515C289.232 251.012 288.233 251.412 286.235 252.211L286.235 252.211ZM283.41 257.365L286.235 256.235L286.235 256.235C288.233 255.436 289.232 255.036 289.232 254.54C289.232 254.092 288.42 253.723 286.797 253.069L283.637 254.333C281.777 255.078 280.608 255.546 279.171 255.546C277.735 255.546 276.566 255.078 274.706 254.333L271.546 253.069C269.923 253.723 269.111 254.092 269.111 254.54C269.111 255.036 270.11 255.436 272.108 256.235L274.933 257.365C276.931 258.164 277.93 258.564 279.171 258.564C280.413 258.564 281.412 258.164 283.41 257.365Z" fill="#FF00FF"/>
<path fill-rule="evenodd" clip-rule="evenodd" d="M20.5859 324.965C17.2722 324.965 14.5859 327.652 14.5859 330.965V343.111C14.5859 346.425 17.2722 349.111 20.5859 349.111H32.7308C36.0445 349.111 38.7308 346.425 38.7308 343.111V330.965C38.7308 327.652 36.0445 324.965 32.7308 324.965H20.5859ZM20.3707 334.523C20.3707 334.833 20.995 335.083 22.2438 335.583L24.0097 336.289C25.2585 336.789 25.8828 337.038 26.6587 337.038C27.4346 337.038 28.0589 336.789 29.3077 336.289L31.0736 335.583C32.3224 335.083 32.9467 334.833 32.9467 334.523C32.9467 334.213 32.3224 333.963 31.0736 333.464L29.3077 332.757C28.0589 332.258 27.4346 332.008 26.6587 332.008C25.8828 332.008 25.2585 332.258 24.0097 332.757L22.2438 333.464C20.995 333.963 20.3707 334.213 20.3707 334.523ZM31.0736 338.098L29.3077 338.804C28.0589 339.304 27.4346 339.554 26.6587 339.554C25.8828 339.554 25.2585 339.304 24.0097 338.804L22.2438 338.098C20.995 337.598 20.3707 337.349 20.3707 337.038C20.3707 336.759 20.878 336.528 21.8926 336.119L23.8677 336.91C25.0301 337.375 25.7607 337.667 26.6587 337.667C27.5567 337.667 28.2873 337.375 29.4497 336.91L31.4248 336.119C32.4394 336.528 32.9467 336.759 32.9467 337.038C32.9467 337.349 32.3224 337.598 31.0736 338.098ZM29.3077 341.319L31.0736 340.613C32.3224 340.114 32.9467 339.864 32.9467 339.553C32.9467 339.274 32.4394 339.043 31.4248 338.635L29.4497 339.425C28.2873 339.89 27.5567 340.182 26.6587 340.182C25.7607 340.182 25.0301 339.89 23.8677 339.425L21.8926 338.635C20.878 339.043 20.3707 339.274 20.3707 339.553C20.3707 339.864 20.995 340.114 22.2438 340.613L24.0097 341.319L24.0098 341.319C25.2585 341.819 25.8828 342.069 26.6587 342.069C27.4346 342.069 28.0589 341.819 29.3076 341.319L29.3077 341.319Z" fill="#7A5FC8"/>
</svg>
