<svg width="855" height="762" viewBox="0 0 855 762" fill="none" xmlns="http://www.w3.org/2000/svg">
<circle cx="14.5" cy="389.5" r="6.5" fill="#FEFC3F"/>
<circle cx="346.5" cy="433.5" r="6.5" fill="#FC16B1"/>
<circle cx="391.5" cy="103.5" r="6.5" fill="#26F0FB"/>
<circle cx="726.5" cy="310.5" r="6.5" fill="#FC7E3A"/>
<path d="M67.0637 202.404C68.0088 201.253 69.8756 201.954 69.8286 203.443L69.7489 205.969C69.5847 211.172 71.8459 216.157 75.8693 219.46L77.8229 221.064C78.9741 222.009 78.2725 223.876 76.7838 223.829L74.2574 223.749C69.0544 223.585 64.0701 225.846 60.767 229.869L59.163 231.823C58.2179 232.974 56.3511 232.273 56.3981 230.784L56.4778 228.257C56.642 223.054 54.3808 218.07 50.3574 214.767L48.4038 213.163C47.2526 212.218 47.9542 210.351 49.4429 210.398L51.9693 210.478C57.1723 210.642 62.1566 208.381 65.4597 204.358L67.0637 202.404Z" fill="#7A5FC8"/>
<path d="M557.63 617.668C557.748 616.473 559.314 616.106 559.95 617.125L561.029 618.854C563.251 622.415 567.002 624.742 571.18 625.153L573.208 625.352C574.404 625.469 574.77 627.035 573.752 627.671L572.022 628.75C568.461 630.973 566.134 634.723 565.724 638.901L565.524 640.93C565.407 642.125 563.841 642.492 563.205 641.473L562.126 639.744C559.903 636.183 556.153 633.855 551.975 633.445L549.946 633.246C548.751 633.129 548.384 631.563 549.403 630.927L551.132 629.847C554.694 627.625 557.021 623.874 557.431 619.697L557.63 617.668Z" fill="#7A5FC8"/>
<circle cx="801" cy="24" r="165.85" stroke="#F5F5F5" stroke-opacity="0.5" stroke-width="0.3"/>
<circle cx="744.5" cy="85.5" r="227.35" stroke="#F5F5F5" stroke-opacity="0.5" stroke-width="0.3"/>
<circle cx="630" cy="205" r="363.85" stroke="#F5F5F5" stroke-opacity="0.5" stroke-width="0.3"/>
<circle cx="493" cy="269" r="492.85" stroke="#F5F5F5" stroke-opacity="0.5" stroke-width="0.3"/>
</svg>
