<svg width="500" height="503" viewBox="0 0 500 503" fill="none" xmlns="http://www.w3.org/2000/svg">
<path d="M381.418 382.17C359.407 404.493 320.182 401.341 293.801 375.054C267.42 348.766 263.939 309.362 285.949 287.039C307.959 264.717 347.185 267.869 373.565 294.156C399.946 320.443 403.428 359.847 381.418 382.17Z" stroke="#F5F5F5" stroke-opacity="0.5" stroke-width="0.3"/>
<path d="M381.564 382.02C351.423 412.588 298.558 409.088 263.484 374.138C228.41 339.188 224.461 286.076 254.601 255.507C284.742 224.938 337.607 228.438 372.681 263.389C407.756 298.339 411.704 351.451 381.564 382.02Z" stroke="#F5F5F5" stroke-opacity="0.5" stroke-width="0.3"/>
<path d="M381.419 382.17C333.294 430.978 250.813 427.265 197.19 373.832C143.567 320.399 139.145 237.517 187.269 188.709C235.393 139.901 317.874 143.614 371.497 197.048C425.12 250.481 429.543 333.363 381.419 382.17Z" stroke="#F5F5F5" stroke-opacity="0.5" stroke-width="0.3"/>
<path d="M381.417 382.17C316.052 448.464 204.219 443.603 131.629 371.27C59.039 298.938 53.2166 186.559 118.582 120.265C183.947 53.9714 295.78 58.8324 368.37 131.165C440.96 203.498 446.782 315.876 381.417 382.17Z" stroke="#F5F5F5" stroke-opacity="0.5" stroke-width="0.3"/>
<ellipse cx="97.1201" cy="324.242" rx="2.74508" ry="2.75962" fill="#FEFC3F"/>
<ellipse cx="284.208" cy="154.844" rx="2.74508" ry="2.75962" fill="#FC16B1"/>
<ellipse cx="122.036" cy="117.058" rx="2.74508" ry="2.75962" fill="#26F0FB"/>
<ellipse cx="240.71" cy="275.417" rx="2.74508" ry="2.75962" fill="#FC7E3A"/>
<ellipse cx="293.921" cy="83.9422" rx="2.74508" ry="2.75962" fill="#FC7E3A"/>
<path d="M123.804 194.943C123.13 194.606 123.264 193.607 124.003 193.461V193.461C126.589 192.949 128.79 191.264 129.959 188.901V188.901C130.294 188.223 131.299 188.359 131.444 189.102V189.102C131.951 191.691 133.631 193.901 135.991 195.081V195.081C136.665 195.418 136.532 196.418 135.793 196.564V196.564C133.207 197.075 131.006 198.761 129.836 201.124V201.124C129.501 201.801 128.497 201.666 128.351 200.923V200.923C127.845 198.334 126.164 196.124 123.804 194.943V194.943Z" fill="#7A5FC8"/>
<path d="M253.124 359.167C253.449 358.652 254.243 358.845 254.298 359.453V359.453C254.489 361.573 255.653 363.486 257.448 364.631V364.631C257.961 364.958 257.77 365.749 257.165 365.804V365.804C255.049 365.997 253.143 367.164 252.009 368.962V368.962C251.684 369.477 250.89 369.284 250.835 368.676V368.676C250.644 366.556 249.48 364.642 247.685 363.497V363.497C247.172 363.17 247.363 362.38 247.967 362.325V362.325C250.084 362.132 251.99 360.964 253.124 359.167V359.167Z" fill="#7A5FC8"/>
<path d="M380.918 126.411C381.056 125.992 381.646 125.988 381.791 126.404V126.404C382.294 127.855 383.443 128.99 384.9 129.476V129.476C385.317 129.614 385.321 130.201 384.907 130.347V130.347C383.458 130.855 382.327 132.008 381.846 133.467V133.467C381.708 133.885 381.117 133.89 380.973 133.474V133.474C380.469 132.023 379.32 130.888 377.863 130.402V130.402C377.447 130.263 377.442 129.676 377.856 129.531V129.531C379.306 129.023 380.437 127.869 380.918 126.411V126.411Z" fill="#7A5FC8"/>
</svg>
