<svg width="26" height="26" viewBox="0 0 26 26" fill="none" xmlns="http://www.w3.org/2000/svg">
<path fill-rule="evenodd" clip-rule="evenodd" d="M12.0089 1.90828C6.34714 1.90828 1.7574 6.49802 1.7574 12.1598C1.7574 17.8215 6.34714 22.4112 12.0089 22.4112C17.6706 22.4112 22.2604 17.8215 22.2604 12.1598C22.2604 6.49802 17.6706 1.90828 12.0089 1.90828ZM0 12.1598C0 5.52744 5.37656 0.150879 12.0089 0.150879C18.6412 0.150879 24.0178 5.52744 24.0178 12.1598C24.0178 15.1596 22.9178 17.9026 21.0991 20.0074L24.932 23.8402C25.2751 24.1833 25.2751 24.7397 24.932 25.0829C24.5888 25.426 24.0325 25.426 23.6893 25.0829L19.8565 21.25C17.7517 23.0687 15.0088 24.1686 12.0089 24.1686C5.37656 24.1686 0 18.7921 0 12.1598Z" fill="#F5F5F5" fill-opacity="0.5"/>
</svg>
