<svg width="17" height="15" viewBox="0 0 17 15" fill="none" xmlns="http://www.w3.org/2000/svg">
<path d="M6.20033 12.7126L6.54717 12.2726L6.20033 12.7126ZM8.46988 2.69528L8.06623 3.08379C8.17185 3.19352 8.31758 3.25552 8.46988 3.25552C8.62218 3.25552 8.76791 3.19352 8.87353 3.08379L8.46988 2.69528ZM10.7394 12.7126L11.0863 13.1525L10.7394 12.7126ZM6.54717 12.2726C5.41499 11.3801 4.17699 10.5085 3.19486 9.40259C2.23195 8.31831 1.56024 7.05311 1.56024 5.41167H0.439759C0.439759 7.40279 1.26929 8.92173 2.35707 10.1466C3.42564 11.3499 4.7878 12.3124 5.85349 13.1525L6.54717 12.2726ZM1.56024 5.41167C1.56024 3.805 2.46811 2.45765 3.70735 1.89119C4.91128 1.34087 6.52895 1.48661 8.06623 3.08379L8.87353 2.30677C7.04948 0.411652 4.93221 0.0993106 3.24153 0.872125C1.58617 1.6288 0.439759 3.38579 0.439759 5.41167H1.56024ZM5.85349 13.1525C6.23613 13.4542 6.64689 13.7758 7.06317 14.0191C7.47927 14.2622 7.95416 14.4599 8.46988 14.4599V13.3394C8.23861 13.3394 7.96652 13.2492 7.62848 13.0517C7.29063 12.8542 6.94011 12.5824 6.54717 12.2726L5.85349 13.1525ZM11.0863 13.1525C12.152 12.3124 13.5141 11.3499 14.5827 10.1466C15.6705 8.92173 16.5 7.40279 16.5 5.41167H15.3795C15.3795 7.05311 14.7078 8.31831 13.7449 9.40259C12.7628 10.5085 11.5248 11.3801 10.3926 12.2726L11.0863 13.1525ZM16.5 5.41167C16.5 3.38579 15.3536 1.6288 13.6982 0.872125C12.0075 0.0993106 9.89028 0.411652 8.06623 2.30677L8.87353 3.08379C10.4108 1.48661 12.0285 1.34087 13.2324 1.89119C14.4717 2.45765 15.3795 3.805 15.3795 5.41167H16.5ZM10.3926 12.2726C9.99965 12.5824 9.64913 12.8542 9.31128 13.0517C8.97324 13.2492 8.70115 13.3394 8.46988 13.3394V14.4599C8.9856 14.4599 9.46049 14.2622 9.87659 14.0191C10.2929 13.7758 10.7036 13.4542 11.0863 13.1525L10.3926 12.2726Z" fill="#F5F5F5"/>
</svg>
