<svg width="26" height="26" viewBox="0 0 26 26" fill="none" xmlns="http://www.w3.org/2000/svg">
<path d="M11.716 20.0296C11.716 20.5149 12.1094 20.9083 12.5947 20.9083C13.08 20.9083 13.4734 20.5149 13.4734 20.0296V16.5148C13.4734 16.0295 13.08 15.6361 12.5947 15.6361C12.1094 15.6361 11.716 16.0295 11.716 16.5148V20.0296Z" fill="#F5F5F5" fill-opacity="0.5"/>
<path fill-rule="evenodd" clip-rule="evenodd" d="M12.5947 0.405334C11.765 0.405334 11.0113 0.642958 10.1935 1.04062C9.40306 1.42503 8.48989 1.99178 7.34927 2.6997L4.92807 4.20236C3.8488 4.87218 2.98458 5.40853 2.31847 5.91865C1.62869 6.4469 1.0989 6.9849 0.716209 7.68404C0.334321 8.38172 0.162345 9.12406 0.0798912 10.0015C-1.67162e-05 10.8519 -9.1042e-06 11.8918 3.13065e-07 13.1959V15.0853C-1.60875e-05 17.3159 -2.8998e-05 19.0766 0.178907 20.4533C0.36246 21.8654 0.748139 23.0055 1.61957 23.9069C2.49501 24.8125 3.60906 25.217 4.9882 25.4088C6.32486 25.5947 8.03196 25.5947 10.1833 25.5947H15.0059C17.1573 25.5947 18.8645 25.5947 20.2011 25.4088C21.5803 25.217 22.6943 24.8125 23.5698 23.9069C24.4412 23.0055 24.8269 21.8654 25.0104 20.4533C25.1894 19.0766 25.1894 17.3159 25.1893 15.0853V13.1959C25.1894 11.8918 25.1894 10.8519 25.1095 10.0015C25.027 9.12406 24.855 8.38172 24.4731 7.68404C24.0905 6.9849 23.5607 6.4469 22.8709 5.91865C22.2048 5.40853 21.3406 4.87219 20.2613 4.20238L17.8401 2.69969C16.6995 1.99178 15.7863 1.42503 14.9958 1.04062C14.1781 0.642957 13.4243 0.405334 12.5947 0.405334ZM8.23578 4.21785C9.42584 3.47926 10.2626 2.96121 10.9621 2.62105C11.6436 2.28964 12.1262 2.16273 12.5947 2.16273C13.0631 2.16273 13.5457 2.28964 14.2272 2.62105C14.9267 2.96121 15.7635 3.47926 16.9536 4.21785L19.2968 5.6721C20.4225 6.37075 21.2128 6.86242 21.8024 7.31389C22.376 7.75318 22.706 8.11568 22.9316 8.52785C23.158 8.94147 23.2901 9.42506 23.3598 10.166C23.4311 10.9246 23.432 11.8821 23.432 13.2389V15.021C23.432 17.3301 23.4302 18.9765 23.2677 20.2267C23.1081 21.4546 22.8075 22.167 22.3063 22.6854C21.8091 23.1997 21.1323 23.505 19.9591 23.6682C18.7575 23.8353 17.1727 23.8373 14.9379 23.8373H10.2515C8.01662 23.8373 6.43187 23.8353 5.23027 23.6682C4.05708 23.505 3.38022 23.1997 2.88305 22.6854C2.38187 22.167 2.08124 21.4546 1.92164 20.2267C1.75914 18.9765 1.7574 17.3301 1.7574 15.021V13.2389C1.7574 11.8821 1.75829 10.9246 1.82958 10.166C1.8992 9.42506 2.03137 8.94147 2.25778 8.52785C2.48338 8.11569 2.81339 7.75318 3.38699 7.31389C3.97652 6.86242 4.76687 6.37075 5.89258 5.6721L8.23578 4.21785Z" fill="#F5F5F5" fill-opacity="0.5"/>
</svg>
