<svg width="13" height="15" viewBox="0 0 13 15" fill="none" xmlns="http://www.w3.org/2000/svg">
<path d="M4.61446 7.46976C4.61446 8.50114 3.77836 9.33723 2.74699 9.33723C1.71561 9.33723 0.879517 8.50114 0.879517 7.46976C0.879517 6.43839 1.71561 5.60229 2.74699 5.60229C3.77836 5.60229 4.61446 6.43839 4.61446 7.46976Z" stroke="#F5F5F5" stroke-width="1.12048"/>
<path d="M8.34944 3.36133L4.6145 5.97579" stroke="#F5F5F5" stroke-width="1.12048" stroke-linecap="round"/>
<path d="M8.34944 11.5782L4.6145 8.96379" stroke="#F5F5F5" stroke-width="1.12048" stroke-linecap="round"/>
<path d="M12.0843 12.3252C12.0843 13.3566 11.2482 14.1927 10.2168 14.1927C9.18546 14.1927 8.34937 13.3566 8.34937 12.3252C8.34937 11.2939 9.18546 10.4578 10.2168 10.4578C11.2482 10.4578 12.0843 11.2939 12.0843 12.3252Z" stroke="#F5F5F5" stroke-width="1.12048"/>
<path d="M12.0843 2.61442C12.0843 3.64579 11.2482 4.48189 10.2168 4.48189C9.18546 4.48189 8.34937 3.64579 8.34937 2.61442C8.34937 1.58304 9.18546 0.746948 10.2168 0.746948C11.2482 0.746948 12.0843 1.58304 12.0843 2.61442Z" stroke="#F5F5F5" stroke-width="1.12048"/>
</svg>
