<svg width="146" height="48" viewBox="0 0 146 48" fill="none" xmlns="http://www.w3.org/2000/svg">
<path d="M34.2531 25.5263C34.2531 24.1196 34.5672 22.8632 35.1955 21.757C35.8374 20.6371 36.7046 19.7698 37.7971 19.1553C38.9034 18.5271 40.1393 18.2129 41.505 18.2129C43.1029 18.2129 44.5028 18.6227 45.7046 19.4421C46.9064 20.2615 47.7463 21.395 48.2243 22.8427H44.9262C44.5984 22.1598 44.134 21.6477 43.5331 21.3063C42.9459 20.9648 42.263 20.7941 41.4846 20.7941C40.6515 20.7941 39.9072 20.9922 39.2516 21.3882C38.6097 21.7706 38.1044 22.3169 37.7357 23.0271C37.3806 23.7372 37.2031 24.5703 37.2031 25.5263C37.2031 26.4687 37.3806 27.3017 37.7357 28.0256C38.1044 28.7357 38.6097 29.2888 39.2516 29.6849C39.9072 30.0673 40.6515 30.2585 41.4846 30.2585C42.263 30.2585 42.9459 30.0878 43.5331 29.7464C44.134 29.3913 44.5984 28.8723 44.9262 28.1894H48.2243C47.7463 29.6508 46.9064 30.7911 45.7046 31.6105C44.5164 32.4163 43.1166 32.8192 41.505 32.8192C40.1393 32.8192 38.9034 32.5119 37.7971 31.8973C36.7046 31.2691 35.8374 30.4019 35.1955 29.2957C34.5672 28.1894 34.2531 26.933 34.2531 25.5263ZM55.7134 32.8807C54.6209 32.8807 53.6376 32.6417 52.7635 32.1637C51.8895 31.672 51.1998 30.9823 50.6945 30.0946C50.2028 29.2069 49.957 28.1826 49.957 27.0218C49.957 25.8609 50.2096 24.8366 50.7149 23.9489C51.2339 23.0612 51.9373 22.3784 52.825 21.9004C53.7127 21.4087 54.7028 21.1629 55.7954 21.1629C56.888 21.1629 57.8781 21.4087 58.7658 21.9004C59.6535 22.3784 60.35 23.0612 60.8553 23.9489C61.3743 24.8366 61.6338 25.8609 61.6338 27.0218C61.6338 28.1826 61.3675 29.2069 60.8349 30.0946C60.3159 30.9823 59.6057 31.672 58.7043 32.1637C57.8166 32.6417 56.8197 32.8807 55.7134 32.8807ZM55.7134 30.3814C56.2324 30.3814 56.7172 30.2585 57.1679 30.0127C57.6323 29.7532 58.001 29.3708 58.2742 28.8655C58.5473 28.3602 58.6839 27.7456 58.6839 27.0218C58.6839 25.9429 58.3971 25.1166 57.8235 24.543C57.2635 23.9557 56.5738 23.6621 55.7544 23.6621C54.935 23.6621 54.2453 23.9557 53.6854 24.543C53.1391 25.1166 52.8659 25.9429 52.8659 27.0218C52.8659 28.1007 53.1323 28.9338 53.6649 29.521C54.2112 30.0946 54.894 30.3814 55.7134 30.3814ZM66.6056 17.5369V32.6963H63.7376V17.5369H66.6056ZM72.3071 17.5369V32.6963H69.4391V17.5369H72.3071ZM85.6908 26.7759C85.6908 27.1857 85.6635 27.5544 85.6089 27.8822H77.3122C77.3805 28.7016 77.6673 29.3435 78.1726 29.8078C78.6779 30.2722 79.2993 30.5043 80.0368 30.5043C81.102 30.5043 81.86 30.0468 82.3107 29.1318H85.404C85.0763 30.2244 84.448 31.1257 83.5193 31.8359C82.5907 32.5324 81.4503 32.8807 80.0982 32.8807C79.0057 32.8807 78.0224 32.6417 77.1483 32.1637C76.2879 31.672 75.6119 30.9823 75.1202 30.0946C74.6422 29.2069 74.4032 28.1826 74.4032 27.0218C74.4032 25.8473 74.6422 24.8161 75.1202 23.9284C75.5982 23.0407 76.2674 22.3579 77.1278 21.8799C77.9882 21.4019 78.9784 21.1629 80.0982 21.1629C81.1772 21.1629 82.14 21.395 82.9867 21.8594C83.8471 22.3237 84.5095 22.9861 84.9738 23.8465C85.4518 24.6932 85.6908 25.6697 85.6908 26.7759ZM82.7204 25.9565C82.7067 25.219 82.4404 24.6318 81.9215 24.1947C81.4025 23.7441 80.7674 23.5187 80.0163 23.5187C79.3061 23.5187 78.7052 23.7372 78.2136 24.1743C77.7356 24.5976 77.4419 25.1917 77.3327 25.9565H82.7204ZM87.0467 27.0218C87.0467 25.8473 87.2857 24.823 87.7637 23.9489C88.2417 23.0612 88.9041 22.3784 89.7508 21.9004C90.5976 21.4087 91.5672 21.1629 92.6598 21.1629C94.0665 21.1629 95.2273 21.518 96.1423 22.2281C97.071 22.9246 97.6924 23.9079 98.0065 25.1781H94.9132C94.7493 24.6864 94.4693 24.304 94.0733 24.0309C93.6909 23.7441 93.2129 23.6007 92.6393 23.6007C91.8199 23.6007 91.1712 23.9011 90.6932 24.502C90.2152 25.0893 89.9762 25.9292 89.9762 27.0218C89.9762 28.1007 90.2152 28.9406 90.6932 29.5415C91.1712 30.1288 91.8199 30.4224 92.6393 30.4224C93.8002 30.4224 94.5581 29.9034 94.9132 28.8655H98.0065C97.6924 30.0946 97.071 31.0711 96.1423 31.7949C95.2137 32.5187 94.0528 32.8807 92.6598 32.8807C91.5672 32.8807 90.5976 32.6417 89.7508 32.1637C88.9041 31.672 88.2417 30.9892 87.7637 30.1151C87.2857 29.2274 87.0467 28.1963 87.0467 27.0218ZM103.447 23.7031V29.1932C103.447 29.5756 103.536 29.8556 103.713 30.0332C103.904 30.197 104.218 30.279 104.655 30.279H105.987V32.6963H104.184C101.767 32.6963 100.558 31.5218 100.558 29.1728V23.7031H99.2062V21.3472H100.558V18.5407H103.447V21.3472H105.987V23.7031H103.447ZM109.504 19.9952C108.999 19.9952 108.576 19.8381 108.234 19.524C107.906 19.1962 107.743 18.7934 107.743 18.3154C107.743 17.8374 107.906 17.4413 108.234 17.1272C108.576 16.7994 108.999 16.6355 109.504 16.6355C110.01 16.6355 110.426 16.7994 110.754 17.1272C111.095 17.4413 111.266 17.8374 111.266 18.3154C111.266 18.7934 111.095 19.1962 110.754 19.524C110.426 19.8381 110.01 19.9952 109.504 19.9952ZM110.918 21.3472V32.6963H108.05V21.3472H110.918ZM116.619 23.0066C116.988 22.4603 117.493 22.0164 118.135 21.675C118.791 21.3336 119.535 21.1629 120.368 21.1629C121.338 21.1629 122.212 21.4019 122.99 21.8799C123.782 22.3579 124.404 23.0407 124.855 23.9284C125.319 24.8025 125.551 25.8199 125.551 26.9808C125.551 28.1416 125.319 29.1728 124.855 30.0741C124.404 30.9618 123.782 31.6515 122.99 32.1432C122.212 32.6348 121.338 32.8807 120.368 32.8807C119.521 32.8807 118.777 32.7168 118.135 32.389C117.507 32.0476 117.002 31.6105 116.619 31.0779V32.6963H113.751V17.5369H116.619V23.0066ZM122.622 26.9808C122.622 26.2979 122.478 25.7107 122.191 25.219C121.918 24.7137 121.55 24.3313 121.085 24.0718C120.635 23.8123 120.143 23.6826 119.61 23.6826C119.091 23.6826 118.6 23.8192 118.135 24.0923C117.685 24.3518 117.316 24.7342 117.029 25.2395C116.756 25.7448 116.619 26.3389 116.619 27.0218C116.619 27.7046 116.756 28.2987 117.029 28.804C117.316 29.3093 117.685 29.6986 118.135 29.9717C118.6 30.2312 119.091 30.3609 119.61 30.3609C120.143 30.3609 120.635 30.2244 121.085 29.9512C121.55 29.6781 121.918 29.2888 122.191 28.7835C122.478 28.2782 122.622 27.6773 122.622 26.9808ZM130.503 17.5369V32.6963H127.635V17.5369H130.503ZM143.887 26.7759C143.887 27.1857 143.86 27.5544 143.805 27.8822H135.508C135.577 28.7016 135.863 29.3435 136.369 29.8078C136.874 30.2722 137.495 30.5043 138.233 30.5043C139.298 30.5043 140.056 30.0468 140.507 29.1318H143.6C143.272 30.2244 142.644 31.1257 141.715 31.8359C140.787 32.5324 139.646 32.8807 138.294 32.8807C137.202 32.8807 136.218 32.6417 135.344 32.1637C134.484 31.672 133.808 30.9823 133.316 30.0946C132.838 29.2069 132.599 28.1826 132.599 27.0218C132.599 25.8473 132.838 24.8161 133.316 23.9284C133.794 23.0407 134.463 22.3579 135.324 21.8799C136.184 21.4019 137.174 21.1629 138.294 21.1629C139.373 21.1629 140.336 21.395 141.183 21.8594C142.043 22.3237 142.706 22.9861 143.17 23.8465C143.648 24.6932 143.887 25.6697 143.887 26.7759ZM140.916 25.9565C140.903 25.219 140.636 24.6318 140.117 24.1947C139.599 23.7441 138.963 23.5187 138.212 23.5187C137.502 23.5187 136.901 23.7372 136.41 24.1743C135.932 24.5976 135.638 25.1917 135.529 25.9565H140.916Z" fill="#9276E6"/>
<path d="M18.2844 11.571C18.0508 11.4849 17.8113 11.4075 17.5704 11.3359L17.9617 34.9402C18.0727 34.9037 18.1822 34.8657 18.2917 34.8263C20.6812 33.9611 22.7461 32.3807 24.2055 30.3002C25.6649 28.2196 26.4479 25.74 26.4479 23.1987C26.4479 20.6573 25.6649 18.1777 24.2055 16.0972C22.7461 14.0166 20.6812 12.4362 18.2917 11.571H18.2844Z" fill="url(#paint0_linear_316_6723)"/>
<path d="M14.124 32.3632V36.4235C13.5838 36.463 13.4685 36.4703 13.0202 36.4703C11.5599 36.4711 10.11 36.2242 8.73213 35.7402C8.24372 35.5722 7.76633 35.3738 7.30277 35.146C5.11256 34.0764 3.26678 32.4132 1.97566 30.3459C0.684546 28.2785 0 25.8901 0 23.4527C0 21.0152 0.684546 18.6268 1.97566 16.5595C3.26678 14.4921 5.11256 12.8289 7.30277 11.7593C7.76531 11.5307 8.24173 11.3312 8.72921 11.1621C10.107 10.6782 11.557 10.4313 13.0173 10.4321C13.3209 10.4216 13.6248 10.4323 13.9269 10.4643L13.905 14.5523C13.613 14.5231 13.321 14.5085 13.0173 14.5085C10.6471 14.5085 8.374 15.4501 6.69802 17.1261C5.02204 18.802 4.08048 21.0752 4.08048 23.4454C4.08048 25.8156 5.02204 28.0887 6.69802 29.7647C8.374 31.4406 10.6471 32.3822 13.0173 32.3822C13.3356 32.3895 13.6393 32.3982 14.124 32.3632Z" fill="url(#paint1_linear_316_6723)"/>
<path d="M18.283 0.714194V46.3328C18.2827 46.4614 18.2477 46.5875 18.1817 46.6979C18.1156 46.8083 18.021 46.8987 17.9078 46.9597C17.7946 47.0208 17.667 47.0501 17.5385 47.0446C17.41 47.0391 17.2853 46.9989 17.1778 46.9284L7.62625 40.6503C7.5275 40.5851 7.44647 40.4964 7.39041 40.3922C7.33435 40.288 7.30502 40.1715 7.30505 40.0532V35.146C7.76759 35.3747 8.24401 35.5741 8.73149 35.7432V39.675L16.8565 45.01V2.04428L8.73149 7.44638V11.1622C8.24302 11.3311 7.76562 11.5305 7.30213 11.7593V7.41718C7.30174 7.1887 7.3581 6.9637 7.46615 6.76238C7.5742 6.56106 7.73056 6.38973 7.92118 6.26376L17.1748 0.119963C17.2822 0.0482413 17.4071 0.00706251 17.5361 0.000830205C17.6651 -0.0054021 17.7934 0.0235465 17.9072 0.0845802C18.021 0.145614 18.1161 0.236437 18.1823 0.347337C18.2485 0.458237 18.2833 0.585043 18.283 0.714194Z" fill="#9276E5"/>
<defs>
<linearGradient id="paint0_linear_316_6723" x1="11.4631" y1="25.2704" x2="36.1449" y2="16.9162" gradientUnits="userSpaceOnUse">
<stop offset="0.08" stop-color="#7A5FC8"/>
<stop offset="0.79" stop-color="#FF00FF"/>
</linearGradient>
<linearGradient id="paint1_linear_316_6723" x1="0.627519" y1="27.4473" x2="17.7186" y2="21.6627" gradientUnits="userSpaceOnUse">
<stop offset="0.08" stop-color="#7A5FC8"/>
<stop offset="0.79" stop-color="#FF00FF"/>
</linearGradient>
</defs>
</svg>
