<svg width="81" height="45" viewBox="0 0 81 45" fill="none" xmlns="http://www.w3.org/2000/svg">
<path d="M0.833033 10.1143C0.833033 8.3641 1.21168 6.80742 1.96899 5.44428C2.72629 4.0643 3.7781 2.99566 5.12442 2.23836C6.48756 1.46423 8.02741 1.07716 9.74397 1.07716C11.8476 1.07716 13.6483 1.63252 15.1461 2.74323C16.6438 3.85394 17.6452 5.36855 18.15 7.28705H13.4043C13.0509 6.54657 12.546 5.9828 11.8897 5.59574C11.2502 5.20867 10.5181 5.01514 9.69348 5.01514C8.36399 5.01514 7.28694 5.47793 6.46232 6.40353C5.6377 7.32912 5.22539 8.56605 5.22539 10.1143C5.22539 11.6626 5.6377 12.8995 6.46232 13.8251C7.28694 14.7507 8.36399 15.2135 9.69348 15.2135C10.5181 15.2135 11.2502 15.02 11.8897 14.6329C12.546 14.2458 13.0509 13.682 13.4043 12.9416H18.15C17.6452 14.8601 16.6438 16.3747 15.1461 17.4854C13.6483 18.5793 11.8476 19.1262 9.74397 19.1262C8.02741 19.1262 6.48756 18.7476 5.12442 17.9903C3.7781 17.2161 2.72629 16.1475 1.96899 14.7843C1.21168 13.4212 0.833033 11.8645 0.833033 10.1143ZM27.2053 19.2019C25.8253 19.2019 24.58 18.9074 23.4693 18.3184C22.3754 17.7294 21.5087 16.888 20.8692 15.7941C20.2465 14.7002 19.9352 13.4212 19.9352 11.9571C19.9352 10.5098 20.255 9.23921 20.8945 8.14532C21.534 7.03461 22.4091 6.18475 23.5198 5.59574C24.6305 5.00672 25.8758 4.71222 27.2558 4.71222C28.6358 4.71222 29.8811 5.00672 30.9918 5.59574C32.1025 6.18475 32.9777 7.03461 33.6172 8.14532C34.2567 9.23921 34.5764 10.5098 34.5764 11.9571C34.5764 13.4044 34.2482 14.6834 33.5919 15.7941C32.9524 16.888 32.0689 17.7294 30.9413 18.3184C29.8306 18.9074 28.5853 19.2019 27.2053 19.2019ZM27.2053 15.4659C28.0299 15.4659 28.7283 15.163 29.3005 14.5572C29.8895 13.9513 30.184 13.0846 30.184 11.9571C30.184 10.8295 29.898 9.96285 29.3258 9.35701C28.7704 8.75117 28.0804 8.44824 27.2558 8.44824C26.4144 8.44824 25.716 8.75117 25.1606 9.35701C24.6052 9.94602 24.3276 10.8127 24.3276 11.9571C24.3276 13.0846 24.5968 13.9513 25.1354 14.5572C25.6907 15.163 26.3807 15.4659 27.2053 15.4659ZM41.1831 0.319859V19H36.8665V0.319859H41.1831ZM48.6279 0.319859V19H44.3113V0.319859H48.6279ZM65.0342 11.7299C65.0342 12.1338 65.0089 12.5545 64.9585 12.9921H55.1892C55.2566 13.8672 55.5342 14.5403 56.0223 15.0115C56.5271 15.4659 57.1414 15.6931 57.865 15.6931C58.9421 15.6931 59.691 15.2387 60.1117 14.33H64.706C64.4704 15.2556 64.0413 16.0886 63.4186 16.8291C62.8128 17.5695 62.047 18.1501 61.1215 18.5709C60.1959 18.9916 59.1609 19.2019 58.0165 19.2019C56.6365 19.2019 55.408 18.9074 54.331 18.3184C53.2539 17.7294 52.4125 16.888 51.8066 15.7941C51.2008 14.7002 50.8979 13.4212 50.8979 11.9571C50.8979 10.493 51.1924 9.21396 51.7814 8.12008C52.3872 7.0262 53.2287 6.18475 54.3057 5.59574C55.3828 5.00672 56.6197 4.71222 58.0165 4.71222C59.3797 4.71222 60.5913 4.99831 61.6516 5.57049C62.7118 6.14268 63.5364 6.95888 64.1254 8.01911C64.7313 9.07933 65.0342 10.3163 65.0342 11.7299ZM60.6166 10.5939C60.6166 9.85346 60.3641 9.26445 59.8593 8.8269C59.3544 8.38934 58.7233 8.17057 57.966 8.17057C57.2424 8.17057 56.6281 8.38093 56.1233 8.80165C55.6352 9.22238 55.3323 9.8198 55.2145 10.5939H60.6166ZM66.4531 11.9571C66.4531 10.493 66.7476 9.21396 67.3367 8.12008C67.9425 7.0262 68.7755 6.18475 69.8358 5.59574C70.9128 5.00672 72.1413 4.71222 73.5213 4.71222C75.2883 4.71222 76.7609 5.17501 77.9389 6.1006C79.1338 7.0262 79.9163 8.33044 80.2865 10.0133H75.6922C75.3052 8.93628 74.5563 8.39776 73.4456 8.39776C72.6546 8.39776 72.0235 8.70909 71.5523 9.33176C71.0811 9.93761 70.8455 10.8127 70.8455 11.9571C70.8455 13.1015 71.0811 13.985 71.5523 14.6076C72.0235 15.2135 72.6546 15.5164 73.4456 15.5164C74.5563 15.5164 75.3052 14.9779 75.6922 13.9008H80.2865C79.9163 15.5501 79.1338 16.8459 77.9389 17.7883C76.744 18.7307 75.2715 19.2019 73.5213 19.2019C72.1413 19.2019 70.9128 18.9074 69.8358 18.3184C68.7755 17.7294 67.9425 16.888 67.3367 15.7941C66.7476 14.7002 66.4531 13.4212 66.4531 11.9571ZM14.313 26.2791V29.7375H9.61775V44H5.30112V29.7375H0.605842V26.2791H14.313ZM20.7961 32.2618C21.3009 31.4877 21.932 30.8818 22.6893 30.4443C23.4466 29.9899 24.2881 29.7627 25.2137 29.7627V34.3318H24.0272C22.9502 34.3318 22.1424 34.5674 21.6038 35.0386C21.0653 35.493 20.7961 36.3008 20.7961 37.462V44H16.4794V29.9142H20.7961V32.2618ZM29.4478 28.45C28.6905 28.45 28.0679 28.2313 27.5798 27.7937C27.1086 27.3393 26.873 26.784 26.873 26.1276C26.873 25.4545 27.1086 24.8991 27.5798 24.4616C28.0679 24.0072 28.6905 23.78 29.4478 23.78C30.1883 23.78 30.7942 24.0072 31.2654 24.4616C31.7534 24.8991 31.9974 25.4545 31.9974 26.1276C31.9974 26.784 31.7534 27.3393 31.2654 27.7937C30.7942 28.2313 30.1883 28.45 29.4478 28.45ZM31.5935 29.9142V44H27.2769V29.9142H31.5935ZM39.0384 31.9084C39.4423 31.2521 40.0229 30.722 40.7802 30.3181C41.5375 29.9142 42.4042 29.7122 43.3802 29.7122C44.5414 29.7122 45.5933 30.0067 46.5357 30.5957C47.4781 31.1847 48.2186 32.0262 48.7571 33.1201C49.3125 34.214 49.5901 35.4845 49.5901 36.9318C49.5901 38.3791 49.3125 39.6581 48.7571 40.7688C48.2186 41.8627 47.4781 42.7126 46.5357 43.3184C45.5933 43.9074 44.5414 44.2019 43.3802 44.2019C42.3873 44.2019 41.5206 44.0084 40.7802 43.6213C40.0397 43.2175 39.4591 42.6873 39.0384 42.031V44H34.7218V25.3199H39.0384V31.9084ZM45.1978 36.9318C45.1978 35.8548 44.8949 35.0133 44.289 34.4075C43.7 33.7848 42.9679 33.4735 42.0928 33.4735C41.2346 33.4735 40.5025 33.7848 39.8967 34.4075C39.3076 35.0302 39.0131 35.88 39.0131 36.9571C39.0131 38.0341 39.3076 38.884 39.8967 39.5067C40.5025 40.1293 41.2346 40.4407 42.0928 40.4407C42.9511 40.4407 43.6832 40.1293 44.289 39.5067C44.8949 38.8672 45.1978 38.0089 45.1978 36.9318ZM65.1328 36.7299C65.1328 37.1338 65.1075 37.5545 65.0571 37.9921H55.2879C55.3552 38.8672 55.6328 39.5403 56.1209 40.0115C56.6258 40.4659 57.24 40.6931 57.9637 40.6931C59.0407 40.6931 59.7896 40.2387 60.2103 39.33H64.8046C64.569 40.2556 64.1399 41.0886 63.5172 41.8291C62.9114 42.5695 62.1456 43.1501 61.2201 43.5709C60.2945 43.9916 59.2595 44.2019 58.1151 44.2019C56.7351 44.2019 55.5066 43.9074 54.4296 43.3184C53.3525 42.7294 52.5111 41.888 51.9052 40.7941C51.2994 39.7002 50.9965 38.4212 50.9965 36.9571C50.9965 35.493 51.291 34.214 51.88 33.1201C52.4858 32.0262 53.3273 31.1847 54.4043 30.5957C55.4814 30.0067 56.7183 29.7122 58.1151 29.7122C59.4783 29.7122 60.6899 29.9983 61.7502 30.5705C62.8104 31.1427 63.635 31.9589 64.224 33.0191C64.8299 34.0793 65.1328 35.3163 65.1328 36.7299ZM60.7152 35.5939C60.7152 34.8535 60.4628 34.2644 59.9579 33.8269C59.453 33.3893 58.8219 33.1706 58.0646 33.1706C57.341 33.1706 56.7267 33.3809 56.2219 33.8017C55.7338 34.2224 55.4309 34.8198 55.3131 35.5939H60.7152Z" fill="url(#paint0_linear_17_176)"/>
<defs>
<linearGradient id="paint0_linear_17_176" x1="-2.37681" y1="32.6154" x2="86.7945" y2="34.9191" gradientUnits="userSpaceOnUse">
<stop stop-color="#7A5FC8"/>
<stop offset="0.260417" stop-color="#FC7E3A"/>
<stop offset="0.515625" stop-color="#FEFC3F"/>
<stop offset="0.713542" stop-color="#26F0FB"/>
<stop offset="0.895833" stop-color="#6550A3"/>
</linearGradient>
</defs>
</svg>
